<svg xmlns="http://www.w3.org/2000/svg" width="68" height="58" viewBox="0 0 68 58" fill="none">
  <path d="M67.2092 18.7873C66.4229 16.9486 65.1165 15.6229 63.4305 14.9552L63.4078 14.9468C62.6404 14.651 61.8233 14.4997 60.9991 14.5007H60.9084C57.0489 14.5579 53.1086 17.785 51.1052 22.5317C49.6359 26.0028 49.4673 29.736 50.6546 32.5185C51.4395 34.3587 52.7487 35.6844 54.4419 36.3521L54.4603 36.3591C55.2278 36.6546 56.0448 36.8059 56.869 36.8052C60.7653 36.8052 64.7467 33.578 66.787 28.7686C68.2379 25.3016 68.398 21.5712 67.2092 18.7873ZM51.7881 39.2601C49.5622 37.9441 47.4582 36.6992 46.0838 34.4632C42.2923 28.2737 40.0026 24.5377 33.9994 24.5377C27.9961 24.5377 25.7008 28.2737 21.9008 34.4632C20.5236 36.702 18.4153 37.9483 16.1823 39.2698C13.6221 40.7837 10.9768 42.3478 9.8348 45.4258C9.39085 46.5354 9.1672 47.7185 9.17596 48.9109C9.17596 53.9225 13.1432 58 18.0172 58C20.5321 58 23.2086 57.1427 26.0409 56.2352C28.7641 55.3625 31.5794 54.4606 34.0136 54.4606C36.4477 54.4606 39.2559 55.3625 41.9692 56.2352C44.7959 57.1371 47.4596 57.9944 49.9816 57.9944C54.8485 57.9944 58.8086 53.9169 58.8086 48.9053C58.8127 47.712 58.5842 46.529 58.1356 45.4203C56.9936 42.3395 54.3469 40.774 51.7881 39.2601ZM18.9806 19.6377C20.6667 21.719 22.8062 22.8649 25.0051 22.8649C25.3053 22.8649 25.6051 22.843 25.902 22.7994C30.4884 22.1358 33.3462 16.6294 32.4082 10.2531C32.0158 7.57237 30.9673 5.07566 29.4654 3.22439C27.7822 1.14729 25.6399 0.00278812 23.4423 0.00278812C23.1422 0.00279759 22.8424 0.0246975 22.5455 0.0683077C17.9591 0.731866 15.1013 6.23828 16.0392 12.6146C16.4303 15.2911 17.4788 17.785 18.9806 19.6377ZM42.0982 22.7994C42.3951 22.843 42.6949 22.8649 42.995 22.8649C45.1954 22.8649 47.3335 21.719 49.0195 19.6377C50.52 17.785 51.5628 15.2911 51.9595 12.6118C52.8975 6.23828 50.0397 0.731866 45.4533 0.0655196C45.1564 0.0219094 44.8566 9.46683e-06 44.5564 0C42.3589 0.00278806 40.2166 1.14729 38.5333 3.22439C37.0315 5.07566 35.983 7.57237 35.5919 10.2559C34.654 16.6294 37.5118 22.1358 42.0982 22.7994ZM13.5385 36.3591L13.5583 36.3521C15.2486 35.6844 16.5564 34.36 17.3399 32.5213C18.5272 29.7333 18.3601 26.0042 16.8936 22.5331C14.8632 17.7293 10.8833 14.5007 6.99116 14.5007C6.16694 14.4995 5.34986 14.6509 4.58249 14.9468L4.56265 14.9538C2.87659 15.6159 1.56882 16.9458 0.785299 18.7845C-0.402032 21.5726 -0.234842 25.3016 1.23161 28.7728C3.26197 33.5766 7.24194 36.8052 11.1341 36.8052C11.9568 36.8058 12.7724 36.6545 13.5385 36.3591Z" fill="#1D3752"/>
</svg>