<svg xmlns="http://www.w3.org/2000/svg" width="34" height="34" viewBox="0 0 34 34" fill="none">
  <path d="M17.0166 12.9691C16.0239 12.9691 15.0942 13.3543 14.3903 14.0582C13.6897 14.7621 13.3012 15.6918 13.3012 16.6846C13.3012 17.6773 13.6897 18.607 14.3903 19.3109C15.0942 20.0115 16.0239 20.4 17.0166 20.4C18.0094 20.4 18.9391 20.0115 19.643 19.3109C20.3436 18.607 20.7321 17.6773 20.7321 16.6846C20.7321 15.6918 20.3436 14.7621 19.643 14.0582C19.2992 13.7117 18.89 13.4371 18.4391 13.2501C17.9883 13.0631 17.5047 12.9676 17.0166 12.9691ZM30.7063 20.7885L28.5348 18.9324C28.6377 18.3016 28.6909 17.6574 28.6909 17.0166C28.6909 16.3758 28.6377 15.7283 28.5348 15.1008L30.7063 13.2447C30.8703 13.1043 30.9877 12.9173 31.0429 12.7085C31.0981 12.4997 31.0884 12.2791 31.0151 12.076L30.9852 11.9896C30.3876 10.3185 29.4921 8.76945 28.3422 7.41757L28.2825 7.34784C28.1428 7.18366 27.9567 7.06563 27.7487 7.00933C27.5406 6.95302 27.3204 6.96107 27.117 7.03241L24.4209 7.99198C23.4248 7.17518 22.3159 6.53104 21.1139 6.0828L20.5926 3.26386C20.5533 3.0515 20.4503 2.85613 20.2973 2.70371C20.1443 2.55129 19.9485 2.44904 19.736 2.41053L19.6463 2.39393C17.9198 2.08182 16.1002 2.08182 14.3737 2.39393L14.284 2.41053C14.0715 2.44904 13.8758 2.55129 13.7227 2.70371C13.5697 2.85613 13.4667 3.0515 13.4274 3.26386L12.9028 6.09608C11.7122 6.5479 10.6031 7.19048 9.61899 7.99862L6.90298 7.03241C6.69966 6.9605 6.47927 6.95216 6.2711 7.0085C6.06293 7.06484 5.87684 7.1832 5.73755 7.34784L5.67778 7.41757C4.52992 8.77089 3.6347 10.3195 3.03481 11.9896L3.00493 12.076C2.85552 12.491 2.97837 12.9558 3.31372 13.2447L5.51177 15.1207C5.40884 15.7449 5.35903 16.3824 5.35903 17.0133C5.35903 17.6508 5.40884 18.2883 5.51177 18.9058L3.32036 20.7818C3.15632 20.9223 3.03892 21.1093 2.98376 21.3181C2.9286 21.5268 2.9383 21.7474 3.01157 21.9506L3.04145 22.0369C3.64243 23.707 4.52895 25.251 5.68442 26.609L5.74419 26.6787C5.88382 26.8429 6.06992 26.9609 6.27797 27.0172C6.48601 27.0735 6.70624 27.0655 6.90962 26.9941L9.62563 26.0279C10.6151 26.8414 11.7174 27.4855 12.9094 27.9305L13.434 30.7627C13.4734 30.975 13.5764 31.1704 13.7294 31.3228C13.8824 31.4752 14.0782 31.5775 14.2907 31.616L14.3803 31.6326C16.1239 31.9464 17.9094 31.9464 19.653 31.6326L19.7426 31.616C19.9551 31.5775 20.1509 31.4752 20.3039 31.3228C20.4569 31.1704 20.5599 30.975 20.5993 30.7627L21.1206 27.9437C22.3225 27.4922 23.4315 26.8514 24.4276 26.0346L27.1237 26.9941C27.327 27.066 27.5474 27.0744 27.7555 27.018C27.9637 26.9617 28.1498 26.8433 28.2891 26.6787L28.3489 26.609C29.5043 25.2443 30.3909 23.707 30.9918 22.0369L31.0217 21.9506C31.1645 21.5389 31.0416 21.0773 30.7063 20.7885ZM17.0166 22.5217C13.7926 22.5217 11.1795 19.9086 11.1795 16.6846C11.1795 13.4605 13.7926 10.8474 17.0166 10.8474C20.2407 10.8474 22.8538 13.4605 22.8538 16.6846C22.8538 19.9086 20.2407 22.5217 17.0166 22.5217Z" fill="#BEBEBE"/>
</svg>