<svg xmlns="http://www.w3.org/2000/svg" width="31" height="30" viewBox="0 0 31 30" fill="none">
<path d="M4.62214 0.736311L15.5 11.2628L26.3215 0.790852C26.5605 0.544645 26.8485 0.347688 27.1681 0.211791C27.4877 0.0758941 27.8324 0.00385703 28.1814 0C28.9289 0 29.6456 0.287316 30.1741 0.798742C30.7026 1.31017 30.9995 2.00381 30.9995 2.72708C31.0061 3.06142 30.942 3.39354 30.8112 3.70305C30.6803 4.01256 30.4855 4.29292 30.2387 4.52695L19.2763 14.9989L30.2387 25.6073C30.7031 26.047 30.9755 26.6424 30.9995 27.2708C30.9995 27.994 30.7026 28.6877 30.1741 29.1991C29.6456 29.7105 28.9289 29.9978 28.1814 29.9978C27.8223 30.0123 27.464 29.9543 27.1292 29.8275C26.7945 29.7007 26.4906 29.508 26.237 29.2615L15.5 18.735L4.65032 29.2343C4.41221 29.4723 4.12775 29.6623 3.81335 29.7933C3.49896 29.9244 3.16086 29.9939 2.81856 29.9978C2.07115 29.9978 1.35436 29.7105 0.82586 29.1991C0.297364 28.6877 0.000458523 27.994 0.000458523 27.2708C-0.00611186 26.9364 0.0579912 26.6043 0.188834 26.2948C0.319677 25.9853 0.5145 25.7049 0.761345 25.4709L11.7237 14.9989L0.761345 4.39059C0.29688 3.95088 0.024524 3.35543 0.000458523 2.72708C0.000458523 2.00381 0.297364 1.31017 0.82586 0.798742C1.35436 0.287316 2.07115 0 2.81856 0C3.4949 0.00818123 4.14306 0.272708 4.62214 0.736311Z" fill="#F55347"/>
</svg>